# Alias OBJ Model File
# Exported from SketchUp, (c) 2000-2012 Trimble Navigation Limited
# File units = millimeters

mtllib 1.mtl

g Mesh1 Group1 Model

usemtl M_0020_Red
v 25.6 0 50
vt -0.142425 0
vn 0 -1 -0
v 24.4 0 50
vt -0.0951808 0
v 24.4 0 42.1536
vt -0.0951808 0.308914
v 24.2202 0 42.3081
vt -0.0881011 0.302832
v 24.0359 0 42.4572
vt -0.0808442 0.296962
v 23.8472 0 42.6007
vt -0.0734164 0.291311
v 23.6543 0 42.7386
vt -0.0658243 0.285881
v 23.4575 0 42.8707
vt -0.0580745 0.28068
v 23.2568 0 42.997
vt -0.0501739 0.27571
v 23.0525 0 43.1172
vt -0.0421293 0.270977
v 22.8447 0 43.2313
vt -0.033948 0.266485
v 22.6336 0 43.3392
vt -0.025637 0.262237
v 22.4194 0 43.4408
vt -0.0172037 0.258238
v 22.2023 0 43.536
vt -0.00865555 0.25449
v 21.9824 0 43.6247
vt 0 0.250998
v 21.9824 0 42.4454
vt 0 0.297423
v 22.2713 0 42.3139
vt -0.0113717 0.3026
v 22.5529 0 42.1677
vt -0.0224616 0.308357
v 22.8267 0 42.0072
vt -0.0332401 0.314676
v 23.0918 0 41.8328
vt -0.0436787 0.321543
v 23.3476 0 41.6449
vt -0.0537495 0.328939
v 23.5934 0 41.4442
vt -0.0634259 0.336844
v 23.8285 0 41.231
vt -0.072682 0.345237
v 24.0523 0 41.006
vt -0.0814934 0.354096
v 24.2643 0 40.7697
vt -0.0898366 0.363397
v 24.4637 0 40.5229
vt -0.0976894 0.373115
v 24.6502 0 40.2661
vt -0.105031 0.383226
v 24.8232 0 40
vt -0.111842 0.393701
v 25.6 0 40
vt -0.142425 0.393701
f 1/1/1 2/2/1 3/3/1 4/4/1 5/5/1 6/6/1 7/7/1 8/8/1 9/9/1 10/10/1 11/11/1 12/12/1 13/13/1 14/14/1 15/15/1 16/16/1 17/17/1 18/18/1 19/19/1 20/20/1 21/21/1 22/22/1 23/23/1 24/24/1 25/25/1 26/26/1 27/27/1 28/28/1 29/29/1 

vt 0.0951808 0
vn 0 0 1
vt 0.142425 0
v 25.6 1.5 50
vt 0.142425 0.0590551
v 24.4 1.5 50
vt 0.0951808 0.0590551
f 2/30/2 1/31/2 30/32/2 31/33/2 

vt 0 0
vn 1 0 -0
vt 0.393701 0
v 25.6 1.5 40
vt 0.393701 0.0590551
vt 0 0.0590551
f 1/34/3 29/35/3 32/36/3 30/37/3 

vn 0 0 -1
vt -0.111842 0
v 24.8232 1.5 40
vt -0.111842 0.0590551
vt -0.142425 0.0590551
f 29/1/4 28/38/4 33/39/4 32/40/4 

vt -0.391033 0
vn -0.838372 0 -0.545098
vt -0.378538 0
v 24.6502 1.5 40.2661
vt -0.378538 0.0590551
vt -0.391033 0.0590551
f 28/41/5 27/42/5 34/43/5 33/44/5 

vt -0.371808 0
vn -0.809169 0 -0.587575
vt -0.359313 0
v 24.4637 1.5 40.5229
vt -0.359313 0.0590551
vt -0.371808 0.0590551
f 27/45/6 26/46/6 35/47/6 34/48/6 

vt -0.351612 0
vn -0.777817 0 -0.628491
vt -0.339118 0
v 24.2643 1.5 40.7697
vt -0.339118 0.0590551
vt -0.351612 0.0590551
f 26/49/7 25/50/7 36/51/7 35/52/7 

vt -0.330499 0
vn -0.744398 0 -0.667737
vt -0.318004 0
v 24.0523 1.5 41.006
vt -0.318004 0.0590551
vt -0.330499 0.0590551
f 25/53/8 24/54/8 37/55/8 36/56/8 

vt -0.308524 0
vn -0.709 0 -0.705208
vt -0.296029 0
v 23.8285 1.5 41.231
vt -0.296029 0.0590551
vt -0.308524 0.0590551
f 24/57/9 23/58/9 38/59/9 37/60/9 

vt -0.285745 0
vn -0.671719 0 -0.740806
vt -0.273251 0
v 23.5934 1.5 41.4442
vt -0.273251 0.0590551
vt -0.285745 0.0590551
f 23/61/10 22/62/10 39/63/10 38/64/10 

vt -0.262225 0
vn -0.632653 0 -0.774435
vt -0.24973 0
v 23.3476 1.5 41.6449
vt -0.24973 0.0590551
vt -0.262225 0.0590551
f 22/65/11 21/66/11 40/67/11 39/68/11 

vt -0.238024 0
vn -0.591906 0 -0.806007
vt -0.225529 0
v 23.0918 1.5 41.8328
vt -0.225529 0.0590551
vt -0.238024 0.0590551
f 21/69/12 20/70/12 41/71/12 40/72/12 

vt -0.213207 0
vn -0.549587 0 -0.835437
vt -0.200712 0
v 22.8267 1.5 42.0072
vt -0.200712 0.0590551
vt -0.213207 0.0590551
f 20/73/13 19/74/13 42/75/13 41/76/13 

vt -0.18784 0
vn -0.505807 0 -0.862647
vt -0.175345 0
v 22.5529 1.5 42.1677
vt -0.175345 0.0590551
vt -0.18784 0.0590551
f 19/77/14 18/78/14 43/79/14 42/80/14 

vt -0.161991 0
vn -0.460683 0 -0.887565
vt -0.149496 0
v 22.2713 1.5 42.3139
vt -0.149496 0.0590551
vt -0.161991 0.0590551
f 18/81/15 17/82/15 44/83/15 43/84/15 

vt -0.135728 0
vn -0.414335 0 -0.910125
vt -0.123233 0
v 21.9824 1.5 42.4454
vt -0.123233 0.0590551
vt -0.135728 0.0590551
f 17/85/16 16/86/16 45/87/16 44/88/16 

vt -0.297423 0
vn -1 0 -0
vt -0.250998 0
v 21.9824 1.5 43.6247
vt -0.250998 0.0590551
vt -0.297423 0.0590551
f 16/89/17 15/90/17 46/91/17 45/92/17 

vt 0.0939191 0
vn 0.374183 0 0.927355
vt 0.103253 0
v 22.2023 1.5 43.536
vt 0.103253 0.0590551
vt 0.0939191 0.0590551
f 15/93/18 14/94/18 47/95/18 46/96/18 

vt 0.11011 0
vn 0.401519 0 0.915851
vt 0.119443 0
v 22.4194 1.5 43.4408
vt 0.119443 0.0590551
vt 0.11011 0.0590551
f 14/97/19 13/98/19 48/99/19 47/100/19 

vt 0.1262 0
vn 0.428502 0 0.903541
vt 0.135533 0
v 22.6336 1.5 43.3392
vt 0.135533 0.0590551
vt 0.1262 0.0590551
f 13/101/20 12/102/20 49/103/20 48/104/20 

vt 0.142174 0
vn 0.455108 0 0.890436
vt 0.151508 0
v 22.8447 1.5 43.2313
vt 0.151508 0.0590551
vt 0.142174 0.0590551
f 12/105/21 11/106/21 50/107/21 49/108/21 

vt 0.15802 0
vn 0.481313 0 0.876549
vt 0.167353 0
v 23.0525 1.5 43.1172
vt 0.167353 0.0590551
vt 0.15802 0.0590551
f 11/109/22 10/110/22 51/111/22 50/112/22 

vt 0.173722 0
vn 0.507095 0 0.86189
vt 0.183056 0
v 23.2568 1.5 42.997
vt 0.183056 0.0590551
vt 0.173722 0.0590551
f 10/113/23 9/114/23 52/115/23 51/116/23 

vt 0.189268 0
vn 0.532431 0 0.846473
vt 0.198601 0
v 23.4575 1.5 42.8707
vt 0.198601 0.0590551
vt 0.189268 0.0590551
f 9/117/24 8/118/24 53/119/24 52/120/24 

vt 0.204643 0
vn 0.557299 0 0.830312
vt 0.213976 0
v 23.6543 1.5 42.7386
vt 0.213976 0.0590551
vt 0.204643 0.0590551
f 8/121/25 7/122/25 54/123/25 53/124/25 

vt 0.219833 0
vn 0.581677 0 0.81342
vt 0.229167 0
v 23.8472 1.5 42.6007
vt 0.229167 0.0590551
vt 0.219833 0.0590551
f 7/125/26 6/126/26 55/127/26 54/128/26 

vt 0.234827 0
vn 0.605543 0 0.795813
vt 0.24416 0
v 24.0359 1.5 42.4572
vt 0.24416 0.0590551
vt 0.234827 0.0590551
f 6/129/27 5/130/27 56/131/27 55/132/27 

vt 0.249609 0
vn 0.628876 0 0.777505
vt 0.258943 0
v 24.2202 1.5 42.3081
vt 0.258943 0.0590551
vt 0.249609 0.0590551
f 5/133/28 4/134/28 57/135/28 56/136/28 

vt 0.264168 0
vn 0.651656 0 0.758514
vt 0.273502 0
v 24.4 1.5 42.1536
vt 0.273502 0.0590551
vt 0.264168 0.0590551
f 4/137/29 3/138/29 58/139/29 57/140/29 

vt -0.308914 0
vn -1 0 1.07818e-015
vt 1.02622e-016 0
vt 1.02622e-016 0.0590551
vt -0.308914 0.0590551
f 3/141/30 2/142/30 31/143/30 58/144/30 

vn 0 1 -0
vt 0.142425 0.393701
vt 0.111842 0.393701
vt 0.105031 0.383226
vt 0.0976894 0.373115
vt 0.0898366 0.363397
vt 0.0814934 0.354096
vt 0.072682 0.345237
vt 0.0634259 0.336844
vt 0.0537495 0.328939
vt 0.0436787 0.321543
vt 0.0332401 0.314676
vt 0.0224616 0.308357
vt 0.0113717 0.3026
vt 0.00865555 0.25449
vt 0.0172037 0.258238
vt 0.025637 0.262237
vt 0.033948 0.266485
vt 0.0421293 0.270977
vt 0.0501739 0.27571
vt 0.0580745 0.28068
vt 0.0658243 0.285881
vt 0.0734164 0.291311
vt 0.0808442 0.296962
vt 0.0881011 0.302832
vt 0.0951808 0.308914
f 31/30/31 30/31/31 32/145/31 33/146/31 34/147/31 35/148/31 36/149/31 37/150/31 38/151/31 39/152/31 40/153/31 41/154/31 42/155/31 43/156/31 44/157/31 45/16/31 46/15/31 47/158/31 48/159/31 49/160/31 50/161/31 51/162/31 52/163/31 53/164/31 54/165/31 55/166/31 56/167/31 57/168/31 58/169/31 

