# Alias OBJ Model File
# Exported from SketchUp, (c) 2000-2012 Trimble Navigation Limited
# File units = millimeters

mtllib 7.mtl

g Mesh1 Group1 Model

usemtl M_0020_Red
v 140.929 0 41.3204
vt 0 0.341718
vn 0 -1 -0
v 140.929 0 40
vt 0 0.393701
v 147.356 0 40
vt -0.253052 0.393701
v 147.356 0 41.3204
vt -0.253052 0.341718
v 146.819 0 41.9195
vt -0.231913 0.31813
v 146.318 0 42.5491
vt -0.21219 0.293344
v 145.855 0 43.2068
vt -0.193952 0.267447
v 145.431 0 43.8906
vt -0.17726 0.240527
v 145.048 0 44.598
vt -0.162172 0.212677
v 144.707 0 45.3266
vt -0.14874 0.183991
v 144.409 0 46.074
vt -0.137009 0.154568
v 144.155 0 46.8375
vt -0.127021 0.12451
v 143.946 0 47.6145
vt -0.118809 0.0939179
v 143.784 0 48.4024
vt -0.112401 0.0628979
v 143.667 0 49.1985
vt -0.107819 0.0315562
v 143.598 0 50
vt -0.105079 0
v 142.381 0 50
vt -0.0571906 0
v 142.433 0 49.2129
vt -0.0592385 0.0309887
v 142.528 0 48.4298
vt -0.0629774 0.0618191
v 142.666 0 47.6531
vt -0.0683959 0.092399
v 142.846 0 46.885
vt -0.075478 0.122637
v 143.067 0 46.128
vt -0.0842025 0.152443
v 143.33 0 45.3841
vt -0.0945432 0.181727
v 143.633 0 44.6558
vt -0.106469 0.210402
v 143.975 0 43.9451
vt -0.119945 0.238382
v 144.356 0 43.2542
vt -0.13493 0.265584
v 144.774 0 42.5851
vt -0.15138 0.291926
v 145.227 0 41.9398
vt -0.169245 0.317329
v 145.716 0 41.3204
vt -0.188471 0.341718
f 1/1/1 2/2/1 3/3/1 4/4/1 5/5/1 6/6/1 7/7/1 8/8/1 9/9/1 10/10/1 11/11/1 12/12/1 13/13/1 14/14/1 15/15/1 16/16/1 17/17/1 18/18/1 19/19/1 20/20/1 21/21/1 22/22/1 23/23/1 24/24/1 25/25/1 26/26/1 27/27/1 28/28/1 29/29/1 

vt -0.393701 0
vn -1 0 -0
vt -0.341718 0
v 140.929 1.5 41.3204
vt -0.341718 0.0590551
v 140.929 1.5 40
vt -0.393701 0.0590551
f 2/30/2 1/31/2 30/32/2 31/33/2 

vt 0 0
vn 0 0 1
vt 0.188471 0
v 145.716 1.5 41.3204
vt 0.188471 0.0590551
vt 0 0.0590551
f 1/34/3 29/35/3 32/36/3 30/37/3 

vt -0.385038 0
vn -0.785313 0 -0.6191
vt -0.353982 0
v 145.227 1.5 41.9398
vt -0.353982 0.0590551
vt -0.385038 0.0590551
f 29/38/4 28/39/4 33/40/4 32/41/4 

vt -0.356927 0
vn -0.817981 0 -0.575245
vt -0.32587 0
v 144.774 1.5 42.5851
vt -0.32587 0.0590551
vt -0.356927 0.0590551
f 28/42/5 27/43/5 34/44/5 33/45/5 

vt -0.327794 0
vn -0.848203 0 -0.529671
vt -0.296738 0
v 144.356 1.5 43.2542
vt -0.296738 0.0590551
vt -0.327794 0.0590551
f 27/46/6 26/47/6 35/48/6 34/49/6 

vt -0.297727 0
vn -0.875889 0 -0.482513
vt -0.266671 0
v 143.975 1.5 43.9451
vt -0.266671 0.0590551
vt -0.297727 0.0590551
f 26/50/7 25/51/7 36/52/7 35/53/7 

vt -0.266817 0
vn -0.900955 0 -0.433912
vt -0.235761 0
v 143.633 1.5 44.6558
vt -0.235761 0.0590551
vt -0.266817 0.0590551
f 25/54/8 24/55/8 37/56/8 36/57/8 

vt -0.235155 0
vn -0.923328 0 -0.384013
vt -0.204099 0
v 143.33 1.5 45.3841
vt -0.204099 0.0590551
vt -0.235155 0.0590551
f 24/58/9 23/59/9 38/60/9 37/61/9 

vt -0.202837 0
vn -0.942939 0 -0.332966
vt -0.171781 0
v 143.067 1.5 46.128
vt -0.171781 0.0590551
vt -0.202837 0.0590551
f 23/62/10 22/63/10 39/64/10 38/65/10 

vt -0.169958 0
vn -0.95973 0 -0.280924
vt -0.138902 0
v 142.846 1.5 46.885
vt -0.138902 0.0590551
vt -0.169958 0.0590551
f 22/66/11 21/67/11 40/68/11 39/69/11 

vt -0.136618 0
vn -0.973652 0 -0.228041
vt -0.105561 0
v 142.666 1.5 47.6531
vt -0.105561 0.0590551
vt -0.136618 0.0590551
f 21/70/12 20/71/12 41/72/12 40/73/12 

vt -0.102915 0
vn -0.984661 0 -0.174476
vt -0.0718589 0
v 142.528 1.5 48.4298
vt -0.0718589 0.0590551
vt -0.102915 0.0590551
f 20/74/13 19/75/13 42/76/13 41/77/13 

vt -0.0689512 0
vn -0.992727 0 -0.12039
vt -0.037895 0
v 142.433 1.5 49.2129
vt -0.037895 0.0590551
vt -0.0689512 0.0590551
f 19/78/14 18/79/14 43/80/14 42/81/14 

vt -0.0348276 0
vn -0.997823 0 -0.0659431
vt -0.00377132 0
v 142.381 1.5 50
vt -0.00377132 0.0590551
vt -0.0348276 0.0590551
f 18/82/15 17/83/15 44/84/15 43/85/15 

vt 0.0571906 0
vt 0.105079 0
v 143.598 1.5 50
vt 0.105079 0.0590551
vt 0.0571906 0.0590551
f 17/86/3 16/87/3 45/88/3 44/89/3 

vt 0.00908892 0
vn 0.996252 0 0.0864959
vt 0.0407638 0
v 143.667 1.5 49.1985
vt 0.0407638 0.0590551
vt 0.00908892 0.0590551
f 16/90/16 15/91/16 46/92/16 45/93/16 

vt 0.0468202 0
vn 0.989483 0 0.144649
vt 0.078495 0
v 143.784 1.5 48.4024
vt 0.078495 0.0590551
vt 0.0468202 0.0590551
f 15/94/17 14/95/17 47/96/17 46/97/17 

vt 0.0843366 0
vn 0.979322 0 0.202305
vt 0.116012 0
v 143.946 1.5 47.6145
vt 0.116012 0.0590551
vt 0.0843366 0.0590551
f 14/98/18 13/99/18 48/100/18 47/101/18 

vt 0.12151 0
vn 0.965805 0 0.259269
vt 0.153185 0
v 144.155 1.5 46.8375
vt 0.153185 0.0590551
vt 0.12151 0.0590551
f 13/102/19 12/103/19 49/104/19 48/105/19 

vt 0.158212 0
vn 0.948977 0 0.315344
vt 0.189887 0
v 144.409 1.5 46.074
vt 0.189887 0.0590551
vt 0.158212 0.0590551
f 12/106/20 11/107/20 50/108/20 49/109/20 

vt 0.194318 0
vn 0.928897 0 0.370338
vt 0.225993 0
v 144.707 1.5 45.3266
vt 0.225993 0.0590551
vt 0.194318 0.0590551
f 11/110/21 10/111/21 51/112/21 50/113/21 

vt 0.229703 0
vn 0.905633 0 0.424062
vt 0.261378 0
v 145.048 1.5 44.598
vt 0.261378 0.0590551
vt 0.229703 0.0590551
f 10/114/22 9/115/22 52/116/22 51/117/22 

vt 0.264247 0
vn 0.879265 0 0.476334
vt 0.295922 0
v 145.431 1.5 43.8906
vt 0.295922 0.0590551
vt 0.264247 0.0590551
f 9/118/23 8/119/23 53/120/23 52/121/23 

vt 0.297831 0
vn 0.849883 0 0.526972
vt 0.329506 0
v 145.855 1.5 43.2068
vt 0.329506 0.0590551
vt 0.297831 0.0590551
f 8/122/24 7/123/24 54/124/24 53/125/24 

vt 0.33034 0
vn 0.817588 0 0.575804
vt 0.362015 0
v 146.318 1.5 42.5491
vt 0.362015 0.0590551
vt 0.33034 0.0590551
f 7/126/25 6/127/25 55/128/25 54/129/25 

vt 0.361662 0
vn 0.78249 0 0.622663
vt 0.393337 0
v 146.819 1.5 41.9195
vt 0.393337 0.0590551
vt 0.361662 0.0590551
f 6/130/26 5/131/26 56/132/26 55/133/26 

vt 0.39169 0
vn 0.744711 0 0.667387
vt 0.423365 0
v 147.356 1.5 41.3204
vt 0.423365 0.0590551
vt 0.39169 0.0590551
f 5/134/27 4/135/27 57/136/27 56/137/27 

vt 0.341718 0
vn 1 0 -0
vt 0.393701 0
v 147.356 1.5 40
vt 0.393701 0.0590551
vt 0.341718 0.0590551
f 4/138/28 3/139/28 58/140/28 57/141/28 

vt -0.253052 0
vn 0 0 -1
vt -0.253052 0.0590551
f 3/142/29 2/34/29 31/37/29 58/143/29 

vn 0 1 -0
vt 0.188471 0.341718
vt 0.169245 0.317329
vt 0.15138 0.291926
vt 0.13493 0.265584
vt 0.119945 0.238382
vt 0.106469 0.210402
vt 0.0945432 0.181727
vt 0.0842025 0.152443
vt 0.075478 0.122637
vt 0.0683959 0.092399
vt 0.0629774 0.0618191
vt 0.0592385 0.0309887
vt 0.107819 0.0315562
vt 0.112401 0.0628979
vt 0.118809 0.0939179
vt 0.127021 0.12451
vt 0.137009 0.154568
vt 0.14874 0.183991
vt 0.162172 0.212677
vt 0.17726 0.240527
vt 0.193952 0.267447
vt 0.21219 0.293344
vt 0.231913 0.31813
vt 0.253052 0.341718
vt 0.253052 0.393701
f 31/2/30 30/1/30 32/144/30 33/145/30 34/146/30 35/147/30 36/148/30 37/149/30 38/150/30 39/151/30 40/152/30 41/153/30 42/154/30 43/155/30 44/86/30 45/87/30 46/156/30 47/157/30 48/158/30 49/159/30 50/160/30 51/161/30 52/162/30 53/163/30 54/164/30 55/165/30 56/166/30 57/167/30 58/168/30 

